<?xml version="1.0" encoding="UTF-8"?>
<!DOCTYPE svg PUBLIC "-//W3C//DTD SVG 1.1//EN" "http://www.w3.org/Graphics/SVG/1.1/DTD/svg11.dtd">
<svg xmlns="http://www.w3.org/2000/svg" version="1.1" width="440px" height="440px" style="shape-rendering:geometricPrecision; text-rendering:geometricPrecision; image-rendering:optimizeQuality; fill-rule:evenodd; clip-rule:evenodd" xmlns:xlink="http://www.w3.org/1999/xlink">
<g><path style="opacity:1" fill="#fefcf5" d="M -0.5,-0.5 C 146.167,-0.5 292.833,-0.5 439.5,-0.5C 439.5,146.167 439.5,292.833 439.5,439.5C 413.833,439.5 388.167,439.5 362.5,439.5C 359.805,430.335 361.972,428.669 369,434.5C 370.766,433.767 372.599,433.433 374.5,433.5C 374.5,429.833 374.5,426.167 374.5,422.5C 371.001,422.741 370.668,421.908 373.5,420C 372.244,419.583 371.577,418.75 371.5,417.5C 391.44,402.938 399.94,383.271 397,358.5C 391.468,346.736 383.301,344.403 372.5,351.5C 370.777,353.253 369.277,355.253 368,357.5C 367.667,357.167 367.333,356.833 367,356.5C 365.859,362.383 364.192,362.716 362,357.5C 361.087,354.648 361.92,352.481 364.5,351C 361.972,349.684 361.972,348.517 364.5,347.5C 361.801,343.435 359.634,339.102 358,334.5C 357.349,332.765 357.515,331.098 358.5,329.5C 357.833,328.5 357.167,327.5 356.5,326.5C 358.674,324.473 359.008,322.14 357.5,319.5C 359.604,319.799 361.604,319.466 363.5,318.5C 361.704,317.859 360.204,316.859 359,315.5C 358.667,316.167 358.333,316.833 358,317.5C 356.111,316.903 354.278,316.569 352.5,316.5C 351.167,314.5 351.167,312.5 352.5,310.5C 357.178,308.832 361.845,307.165 366.5,305.5C 367.192,306.025 367.692,306.692 368,307.5C 368.75,306.874 369.584,306.374 370.5,306C 369.328,305.581 368.328,304.915 367.5,304C 369.76,303.451 371.426,302.284 372.5,300.5C 385.941,294.167 395.774,284.167 402,270.5C 404.072,264.117 406.239,257.784 408.5,251.5C 411.35,247.747 412.35,243.58 411.5,239C 412.984,232.973 413.65,226.806 413.5,220.5C 413.098,213.605 412.931,206.939 413,200.5C 414.5,199.667 415.667,198.5 416.5,197C 418.898,196.626 421.231,196.626 423.5,197C 423.167,196 422.833,195 422.5,194C 423.756,193.583 424.423,192.75 424.5,191.5C 428.476,189.02 431.143,185.52 432.5,181C 429.946,173.237 425.612,166.57 419.5,161C 406.332,149.852 391.332,142.186 374.5,138C 353.795,120.48 330.128,108.48 303.5,102C 274.473,94.7179 245.473,94.7179 216.5,102C 208.639,104.265 201.306,107.598 194.5,112C 169.091,114.895 147.257,125.061 129,142.5C 125.701,146.691 126.034,150.691 130,154.5C 135.041,159.598 140.541,164.098 146.5,168C 143.321,176.554 141.154,185.388 140,194.5C 133.835,203.969 130.669,214.469 130.5,226C 130.684,228.865 131.018,231.698 131.5,234.5C 131.5,235.5 131.5,236.5 131.5,237.5C 129.901,237.232 128.568,237.566 127.5,238.5C 103.48,238.662 82.1471,246.162 63.5,261C 45.6046,266.907 31.1046,277.407 20,292.5C 16.6177,296.625 16.7844,300.458 20.5,304C 25.4946,306.942 30.828,308.776 36.5,309.5C 35.5859,316.48 34.7525,323.48 34,330.5C 26.6469,345.613 26.9802,360.613 35,375.5C 42.4881,385.169 52.3214,391.169 64.5,393.5C 61.1989,401.315 60.6989,409.315 63,417.5C 64.4219,421.758 67.2553,424.424 71.5,425.5C 71.5,430.167 71.5,434.833 71.5,439.5C 47.5,439.5 23.5,439.5 -0.5,439.5C -0.5,292.833 -0.5,146.167 -0.5,-0.5 Z"/></g>
<g><path style="opacity:1" fill="#c1b7b0" d="M 415.5,166.5 C 415.785,168.288 415.452,169.955 414.5,171.5C 411.36,169.527 408.36,167.36 405.5,165C 400.74,163.814 396.407,161.981 392.5,159.5C 391.5,159.5 390.5,159.5 389.5,159.5C 389.586,158.504 389.252,157.671 388.5,157C 378.446,154.381 375.946,157.547 381,166.5C 383.693,166.953 385.527,168.453 386.5,171C 384.137,171.589 383.137,173.089 383.5,175.5C 384.5,175.5 385.5,175.5 386.5,175.5C 388.498,181.507 391.498,186.84 395.5,191.5C 395.796,193.403 396.463,195.07 397.5,196.5C 399.127,224.435 391.627,249.435 375,271.5C 358.487,287.519 338.654,295.852 315.5,296.5C 312.814,299.931 312.981,303.264 316,306.5C 317.011,305.663 318.178,305.33 319.5,305.5C 320.167,305.5 320.833,305.5 321.5,305.5C 329.747,325.177 334.247,345.844 335,367.5C 337.018,391.836 335.185,415.836 329.5,439.5C 301.833,439.5 274.167,439.5 246.5,439.5C 250.859,428.369 251.526,417.036 248.5,405.5C 249.234,404.292 249.567,402.959 249.5,401.5C 246.239,400.425 242.905,399.425 239.5,398.5C 242.28,395.936 245.28,393.603 248.5,391.5C 248.827,389.333 249.494,386.999 250.5,384.5C 258.829,372.236 262.495,358.57 261.5,343.5C 261.471,339.116 261.138,334.782 260.5,330.5C 261,330.167 261.5,329.833 262,329.5C 264.571,331.191 267.404,332.191 270.5,332.5C 270.082,333.222 269.416,333.722 268.5,334C 269.167,334.333 269.833,334.667 270.5,335C 278.833,335.667 287.167,335.667 295.5,335C 297.377,333.815 299.377,332.815 301.5,332C 304.497,327.662 303.664,324.162 299,321.5C 292.959,322.075 287.126,323.408 281.5,325.5C 274.13,325.432 267.463,323.265 261.5,319C 260.167,318 260.167,317 261.5,316C 259.015,314.242 257.015,312.742 255.5,311.5C 255.68,310.446 256.013,309.446 256.5,308.5C 260.459,307.673 264.459,307.173 268.5,307C 267.066,304.253 264.733,302.753 261.5,302.5C 262.531,301.3 263.365,299.966 264,298.5C 267.006,302.584 271.173,304.418 276.5,304C 275.833,304.333 275.167,304.667 274.5,305C 281.804,306.698 288.804,307.198 295.5,306.5C 298.303,299.781 295.97,295.448 288.5,293.5C 287.749,294.376 287.249,295.376 287,296.5C 282.314,294.837 277.814,292.67 273.5,290C 274.34,288.334 273.84,288.167 272,289.5C 271.29,288.027 270.124,287.36 268.5,287.5C 261.249,277.582 252.415,275.915 242,282.5C 236.034,278.214 232.367,272.548 231,265.5C 229.586,264.587 228.086,264.587 226.5,265.5C 224.488,264.078 222.488,262.745 220.5,261.5C 220.5,259.833 220.5,258.167 220.5,256.5C 217.642,256.028 215.642,257.028 214.5,259.5C 214.167,257.167 212.833,255.833 210.5,255.5C 210.5,253.833 210.5,252.167 210.5,250.5C 208.833,250.5 207.167,250.5 205.5,250.5C 205.737,251.791 205.404,252.791 204.5,253.5C 204.254,250.53 202.588,249.197 199.5,249.5C 199.5,248.167 199.5,246.833 199.5,245.5C 199.938,245.565 200.272,245.399 200.5,245C 199.568,240.668 196.902,237.835 192.5,236.5C 191.526,234.257 191.192,231.924 191.5,229.5C 193.936,229.317 196.103,229.984 198,231.5C 200.386,231.451 202.886,230.785 205.5,229.5C 206.442,229.608 207.275,229.941 208,230.5C 210.917,227.982 213.083,224.982 214.5,221.5C 214.104,218.572 213.937,215.572 214,212.5C 213.002,209.766 211.168,208.099 208.5,207.5C 202.866,203.508 197.199,203.508 191.5,207.5C 190.178,207.33 189.011,207.663 188,208.5C 187.111,211.279 185.944,213.945 184.5,216.5C 183.102,214.203 181.436,212.037 179.5,210C 172.776,209.226 166.11,209.559 159.5,211C 153.042,217.268 151.708,224.601 155.5,233C 152.408,233.736 149.408,233.569 146.5,232.5C 142.509,221.751 142.509,210.917 146.5,200C 145.748,199.329 145.414,198.496 145.5,197.5C 146.909,186.53 149.576,175.864 153.5,165.5C 157.937,156.041 163.271,147.041 169.5,138.5C 199.292,108.863 235.292,97.0292 277.5,103C 310.324,107.041 339.824,118.874 366,138.5C 366.202,140.256 366.702,141.922 367.5,143.5C 386.175,145.839 402.175,153.506 415.5,166.5 Z"/></g>
<g><path style="opacity:1" fill="#fee8d8" d="M 66.5,177.5 C 63.5314,176.671 60.5314,176.505 57.5,177C 56.2899,178.039 55.2899,179.206 54.5,180.5C 53.5041,180.414 52.6708,180.748 52,181.5C 50.7679,185.061 49.2679,188.394 47.5,191.5C 46.8846,181.453 51.5513,176.12 61.5,175.5C 63.6397,175.556 65.3064,176.223 66.5,177.5 Z"/></g>
<g><path style="opacity:1" fill="#d66d52" d="M 54.5,180.5 C 52.88,183.228 51.88,186.228 51.5,189.5C 50.3088,191.327 48.9755,192.993 47.5,194.5C 47.5,194.167 47.5,193.833 47.5,193.5C 47.5,192.833 47.5,192.167 47.5,191.5C 49.2679,188.394 50.7679,185.061 52,181.5C 52.6708,180.748 53.5041,180.414 54.5,180.5 Z"/></g>
<g><path style="opacity:1" fill="#d86249" d="M 66.5,177.5 C 66.8333,178.167 67.1667,178.833 67.5,179.5C 70.579,189.303 69.579,198.637 64.5,207.5C 65.8004,202.42 66.8004,197.254 67.5,192C 67.359,188.448 66.859,184.948 66,181.5C 64.5618,180.282 62.8951,179.615 61,179.5C 58.863,180.077 56.6963,180.41 54.5,180.5C 55.2899,179.206 56.2899,178.039 57.5,177C 60.5314,176.505 63.5314,176.671 66.5,177.5 Z"/></g>
<g><path style="opacity:1" fill="#fee6d4" d="M 47.5,193.5 C 47.5,193.833 47.5,194.167 47.5,194.5C 47.5299,195.497 47.0299,196.164 46,196.5C 44.5603,195.852 43.0603,195.519 41.5,195.5C 37.2673,194.206 32.9339,194.206 28.5,195.5C 25.9501,196.057 23.9501,197.39 22.5,199.5C 21.9738,196.192 23.3072,194.026 26.5,193C 33.4929,192.892 40.4929,193.059 47.5,193.5 Z"/></g>
<g><path style="opacity:1" fill="#c66550" d="M 41.5,195.5 C 37.9581,195.187 34.6248,195.521 31.5,196.5C 30.5,196.5 29.5,196.5 28.5,196.5C 28.5,196.167 28.5,195.833 28.5,195.5C 32.9339,194.206 37.2673,194.206 41.5,195.5 Z"/></g>
<g><path style="opacity:1" fill="#e75534" d="M 51.5,189.5 C 51.5,192.167 51.5,194.833 51.5,197.5C 44.8144,197.473 38.1477,197.139 31.5,196.5C 34.6248,195.521 37.9581,195.187 41.5,195.5C 43.0603,195.519 44.5603,195.852 46,196.5C 47.0299,196.164 47.5299,195.497 47.5,194.5C 48.9755,192.993 50.3088,191.327 51.5,189.5 Z"/></g>
<g><path style="opacity:1" fill="#fa4927" d="M 64.5,207.5 C 63.6618,207.842 63.3284,208.508 63.5,209.5C 60.7684,211.035 58.1018,212.869 55.5,215C 46.4131,215.829 37.4131,215.329 28.5,213.5C 26.7484,211.754 25.4151,209.754 24.5,207.5C 24.3379,205.473 24.5045,203.473 25,201.5C 27.4057,199.913 29.5724,198.247 31.5,196.5C 38.1477,197.139 44.8144,197.473 51.5,197.5C 51.5,194.833 51.5,192.167 51.5,189.5C 51.88,186.228 52.88,183.228 54.5,180.5C 56.6963,180.41 58.863,180.077 61,179.5C 62.8951,179.615 64.5618,180.282 66,181.5C 66.859,184.948 67.359,188.448 67.5,192C 66.8004,197.254 65.8004,202.42 64.5,207.5 Z"/></g>
<g><path style="opacity:1" fill="#eda993" d="M 28.5,195.5 C 28.5,195.833 28.5,196.167 28.5,196.5C 26.5201,197.484 24.8534,198.817 23.5,200.5C 22.5386,202.265 22.2053,204.265 22.5,206.5C 21.5489,205.081 21.2155,203.415 21.5,201.5C 21.3284,200.508 21.6618,199.842 22.5,199.5C 23.9501,197.39 25.9501,196.057 28.5,195.5 Z"/></g>
<g><path style="opacity:1" fill="#e35539" d="M 28.5,196.5 C 29.5,196.5 30.5,196.5 31.5,196.5C 29.5724,198.247 27.4057,199.913 25,201.5C 24.5045,203.473 24.3379,205.473 24.5,207.5C 23.5318,205.393 23.1984,203.059 23.5,200.5C 24.8534,198.817 26.5201,197.484 28.5,196.5 Z"/></g>
<g><path style="opacity:1" fill="#f5e9dd" d="M 424.5,191.5 C 424.423,192.75 423.756,193.583 422.5,194C 422.833,195 423.167,196 423.5,197C 421.231,196.626 418.898,196.626 416.5,197C 415.667,198.5 414.5,199.667 413,200.5C 412.931,206.939 413.098,213.605 413.5,220.5C 413.65,226.806 412.984,232.973 411.5,239C 412.35,243.58 411.35,247.747 408.5,251.5C 412.682,233.619 413.349,215.619 410.5,197.5C 415.418,196.04 420.085,194.04 424.5,191.5 Z"/></g>
<g><path style="opacity:1" fill="#ca6752" d="M 23.5,200.5 C 23.1984,203.059 23.5318,205.393 24.5,207.5C 25.4151,209.754 26.7484,211.754 28.5,213.5C 25.0536,212.388 23.0536,210.055 22.5,206.5C 22.2053,204.265 22.5386,202.265 23.5,200.5 Z"/></g>
<g><path style="opacity:1" fill="#fce3d0" d="M 67.5,179.5 C 69.335,180.122 70.5017,181.456 71,183.5C 71.6667,189.167 71.6667,194.833 71,200.5C 69.6667,201.167 68.6667,202.167 68,203.5C 67.6667,206.167 67.3333,208.833 67,211.5C 65.9887,212.337 64.8221,212.67 63.5,212.5C 63.719,213.675 63.3857,214.675 62.5,215.5C 60.2706,216.577 57.9372,217.244 55.5,217.5C 56.9738,216.325 58.6404,215.325 60.5,214.5C 61.2599,212.64 62.2599,210.973 63.5,209.5C 63.3284,208.508 63.6618,207.842 64.5,207.5C 69.579,198.637 70.579,189.303 67.5,179.5 Z"/></g>
<g><path style="opacity:1" fill="#d6654e" d="M 63.5,209.5 C 62.2599,210.973 61.2599,212.64 60.5,214.5C 58.6404,215.325 56.9738,216.325 55.5,217.5C 47.4585,217.664 39.4585,217.164 31.5,216C 30.0577,215.623 29.0577,214.79 28.5,213.5C 37.4131,215.329 46.4131,215.829 55.5,215C 58.1018,212.869 60.7684,211.035 63.5,209.5 Z"/></g>
<g><path style="opacity:1" fill="#fee6cf" d="M 21.5,201.5 C 21.2155,203.415 21.5489,205.081 22.5,206.5C 23.0536,210.055 25.0536,212.388 28.5,213.5C 29.0577,214.79 30.0577,215.623 31.5,216C 39.4585,217.164 47.4585,217.664 55.5,217.5C 46.4281,218.823 37.2614,218.49 28,216.5C 25.2447,214.539 22.4113,212.706 19.5,211C 20.132,207.73 20.7986,204.563 21.5,201.5 Z"/></g>
<g><path style="opacity:1" fill="#8e7266" d="M 131.5,234.5 C 132.434,235.568 132.768,236.901 132.5,238.5C 130.833,238.5 129.167,238.5 127.5,238.5C 128.568,237.566 129.901,237.232 131.5,237.5C 131.5,236.5 131.5,235.5 131.5,234.5 Z"/></g>
<g><path style="opacity:1" fill="#fdfdfc" d="M 199.5,249.5 C 202.588,249.197 204.254,250.53 204.5,253.5C 204.963,259.21 206.963,259.877 210.5,255.5C 212.833,255.833 214.167,257.167 214.5,259.5C 212.943,262.163 213.61,264.163 216.5,265.5C 218.188,264.479 219.521,263.145 220.5,261.5C 222.488,262.745 224.488,264.078 226.5,265.5C 225.054,268.001 224.554,270.667 225,273.5C 230.344,277.845 235.011,282.845 239,288.5C 239.892,298.941 243.058,308.608 248.5,317.5C 248.962,319.757 249.962,321.757 251.5,323.5C 251.02,336.781 247.186,349.114 240,360.5C 239.814,362.9 239.314,365.234 238.5,367.5C 234.069,371.831 229.402,375.831 224.5,379.5C 223.571,380.689 223.238,382.022 223.5,383.5C 219.995,382.891 217.328,384.058 215.5,387C 210.892,388.308 206.558,390.141 202.5,392.5C 194.22,393.806 185.887,394.639 177.5,395C 177.833,395.333 178.167,395.667 178.5,396C 175.982,397.14 175.982,398.306 178.5,399.5C 179.417,401.511 181.083,402.511 183.5,402.5C 187.145,403.116 190.812,403.45 194.5,403.5C 195.172,404.267 196.005,404.934 197,405.5C 199.747,413.403 203.08,421.07 207,428.5C 207.719,432.145 208.219,435.812 208.5,439.5C 166.833,439.5 125.167,439.5 83.5,439.5C 83.5,435.5 83.5,431.5 83.5,427.5C 86.4042,427.692 89.4042,428.025 92.5,428.5C 94.516,428.484 95.516,427.484 95.5,425.5C 102.8,416.405 104.967,406.071 102,394.5C 96.7361,383.687 88.2361,379.687 76.5,382.5C 70.0419,382.884 64.0419,381.384 58.5,378C 53.3061,374.139 48.8061,369.639 45,364.5C 44.2164,360.95 43.3831,357.45 42.5,354C 44.0468,353.667 45.3801,354.167 46.5,355.5C 50.0938,354.574 53.7604,354.241 57.5,354.5C 59.7339,349.364 60.0672,344.03 58.5,338.5C 52.2611,335.509 46.4277,336.176 41,340.5C 41.6456,328.469 42.8122,316.469 44.5,304.5C 49.442,283.063 61.442,266.896 80.5,256C 106.956,243.745 134.623,240.078 163.5,245C 174.466,246.863 184.966,250.03 195,254.5C 195.873,254.265 196.707,253.931 197.5,253.5C 198.172,252.051 198.839,250.718 199.5,249.5 Z"/></g>
<g><path style="opacity:1" fill="#4f2e1d" d="M 424.5,191.5 C 420.085,194.04 415.418,196.04 410.5,197.5C 413.349,215.619 412.682,233.619 408.5,251.5C 406.239,257.784 404.072,264.117 402,270.5C 395.774,284.167 385.941,294.167 372.5,300.5C 365.278,304.055 357.611,305.889 349.5,306C 348.572,306.388 347.905,307.055 347.5,308C 356.48,331.378 361.98,355.545 364,380.5C 365.861,378.112 367.194,375.446 368,372.5C 368.556,365.215 370.056,358.215 372.5,351.5C 383.301,344.403 391.468,346.736 397,358.5C 399.94,383.271 391.44,402.938 371.5,417.5C 367.558,419.624 363.892,421.957 360.5,424.5C 360.278,421.924 358.945,421.09 356.5,422C 357.167,422.333 357.833,422.667 358.5,423C 357.244,423.417 356.577,424.25 356.5,425.5C 356.167,425.5 355.833,425.5 355.5,425.5C 359.672,390.57 356.839,356.237 347,322.5C 345.158,317.123 342.658,312.123 339.5,307.5C 333.532,306.503 327.532,305.836 321.5,305.5C 320.833,305.5 320.167,305.5 319.5,305.5C 316.09,304.906 314.924,302.906 316,299.5C 367.907,309.562 397.574,288.562 405,236.5C 405.749,224.474 405.582,212.474 404.5,200.5C 401.05,201.244 399.384,199.91 399.5,196.5C 408.87,193.08 417.704,188.414 426,182.5C 424.816,175.785 421.316,170.452 415.5,166.5C 402.175,153.506 386.175,145.839 367.5,143.5C 366.702,141.922 366.202,140.256 366,138.5C 339.824,118.874 310.324,107.041 277.5,103C 235.292,97.0292 199.292,108.863 169.5,138.5C 168.957,138.44 168.624,138.107 168.5,137.5C 169.26,135.64 170.26,133.973 171.5,132.5C 171.351,131.448 171.517,130.448 172,129.5C 183.86,121.127 182.694,119.293 168.5,124C 155.604,129.026 144.104,136.192 134,145.5C 133.262,148.212 133.929,150.545 136,152.5C 140.066,156.077 144.232,159.411 148.5,162.5C 148.402,163.549 148.402,164.715 148.5,166C 150.107,165.981 151.774,165.815 153.5,165.5C 149.576,175.864 146.909,186.53 145.5,197.5C 139.442,206.061 136.442,215.728 136.5,226.5C 136.779,230.18 137.112,233.847 137.5,237.5C 143.838,237.767 150.171,238.1 156.5,238.5C 169.188,239.507 181.521,242.173 193.5,246.5C 195.281,244.454 197.281,244.12 199.5,245.5C 199.5,246.833 199.5,248.167 199.5,249.5C 198.839,250.718 198.172,252.051 197.5,253.5C 196.707,253.931 195.873,254.265 195,254.5C 184.966,250.03 174.466,246.863 163.5,245C 134.623,240.078 106.956,243.745 80.5,256C 61.442,266.896 49.442,283.063 44.5,304.5C 43.2237,306.562 42.3903,308.896 42,311.5C 41.3333,318.167 40.6667,324.833 40,331.5C 30.3622,350.182 33.1955,366.682 48.5,381C 55.964,385.38 63.964,387.047 72.5,386C 73.7305,384.595 75.0639,383.429 76.5,382.5C 88.2361,379.687 96.7361,383.687 102,394.5C 104.967,406.071 102.8,416.405 95.5,425.5C 89.3532,426.464 83.3532,426.464 77.5,425.5C 77.5,430.167 77.5,434.833 77.5,439.5C 75.5,439.5 73.5,439.5 71.5,439.5C 71.5,434.833 71.5,430.167 71.5,425.5C 67.2553,424.424 64.4219,421.758 63,417.5C 60.6989,409.315 61.1989,401.315 64.5,393.5C 52.3214,391.169 42.4881,385.169 35,375.5C 26.9802,360.613 26.6469,345.613 34,330.5C 34.7525,323.48 35.5859,316.48 36.5,309.5C 30.828,308.776 25.4946,306.942 20.5,304C 16.7844,300.458 16.6177,296.625 20,292.5C 31.1046,277.407 45.6046,266.907 63.5,261C 82.1471,246.162 103.48,238.662 127.5,238.5C 129.167,238.5 130.833,238.5 132.5,238.5C 132.768,236.901 132.434,235.568 131.5,234.5C 131.018,231.698 130.684,228.865 130.5,226C 130.669,214.469 133.835,203.969 140,194.5C 141.154,185.388 143.321,176.554 146.5,168C 140.541,164.098 135.041,159.598 130,154.5C 126.034,150.691 125.701,146.691 129,142.5C 147.257,125.061 169.091,114.895 194.5,112C 201.306,107.598 208.639,104.265 216.5,102C 245.473,94.7179 274.473,94.7179 303.5,102C 330.128,108.48 353.795,120.48 374.5,138C 391.332,142.186 406.332,149.852 419.5,161C 425.612,166.57 429.946,173.237 432.5,181C 431.143,185.52 428.476,189.02 424.5,191.5 Z"/></g>
<g><path style="opacity:1" fill="#ac9d93" d="M 397.5,196.5 C 398.167,196.5 398.833,196.5 399.5,196.5C 399.384,199.91 401.05,201.244 404.5,200.5C 405.582,212.474 405.749,224.474 405,236.5C 397.574,288.562 367.907,309.562 316,299.5C 314.924,302.906 316.09,304.906 319.5,305.5C 318.178,305.33 317.011,305.663 316,306.5C 312.981,303.264 312.814,299.931 315.5,296.5C 338.654,295.852 358.487,287.519 375,271.5C 391.627,249.435 399.127,224.435 397.5,196.5 Z"/></g>
<g><path style="opacity:1" fill="#473024" d="M 220.5,261.5 C 219.521,263.145 218.188,264.479 216.5,265.5C 213.61,264.163 212.943,262.163 214.5,259.5C 215.642,257.028 217.642,256.028 220.5,256.5C 220.5,258.167 220.5,259.833 220.5,261.5 Z"/></g>
<g><path style="opacity:1" fill="#482f22" d="M 210.5,255.5 C 206.963,259.877 204.963,259.21 204.5,253.5C 205.404,252.791 205.737,251.791 205.5,250.5C 207.167,250.5 208.833,250.5 210.5,250.5C 210.5,252.167 210.5,253.833 210.5,255.5 Z"/></g>
<g><path style="opacity:1" fill="#ab998c" d="M 145.5,197.5 C 145.414,198.496 145.748,199.329 146.5,200C 142.509,210.917 142.509,221.751 146.5,232.5C 146.751,234.17 147.418,235.67 148.5,237C 151.365,237.183 154.031,237.683 156.5,238.5C 150.171,238.1 143.838,237.767 137.5,237.5C 137.112,233.847 136.779,230.18 136.5,226.5C 136.442,215.728 139.442,206.061 145.5,197.5 Z"/></g>
<g><path style="opacity:1" fill="#4f2d1c" d="M 298.5,207.5 C 297.127,207.343 295.793,207.51 294.5,208C 295.167,208.333 295.833,208.667 296.5,209C 293.792,210.069 291.125,211.236 288.5,212.5C 287.167,216.167 287.167,219.833 288.5,223.5C 290.833,225.5 293.167,227.5 295.5,229.5C 297.751,228.305 300.085,227.305 302.5,226.5C 303.386,225.675 303.719,224.675 303.5,223.5C 304.5,223.5 305.5,223.5 306.5,223.5C 305.561,220.197 304.561,216.864 303.5,213.5C 302.5,213.5 301.5,213.5 300.5,213.5C 300.629,211.784 300.962,210.117 301.5,208.5C 308.383,212.435 310.217,218.102 307,225.5C 305.833,228 304,229.833 301.5,231C 289.421,232.922 283.588,227.756 284,215.5C 287.219,209.15 292.052,206.484 298.5,207.5 Z"/></g>
<g><path style="opacity:1" fill="#e0a79a" d="M 319.5,223.5 C 318.805,225.978 317.305,227.978 315,229.5C 314.457,232.868 314.624,236.201 315.5,239.5C 316.833,239.5 318.167,239.5 319.5,239.5C 319.5,240.5 319.5,241.5 319.5,242.5C 324.833,242.5 330.167,242.5 335.5,242.5C 335.5,241.5 335.5,240.5 335.5,239.5C 336.5,239.5 337.5,239.5 338.5,239.5C 338.664,236.813 338.497,234.146 338,231.5C 336.108,230.383 335.275,228.716 335.5,226.5C 333.027,226.912 331.694,225.912 331.5,223.5C 335.072,223.889 337.739,225.722 339.5,229C 343.814,241.581 339.481,247.081 326.5,245.5C 318.63,247.454 314.13,244.454 313,236.5C 312.333,234.167 312.333,231.833 313,229.5C 315.083,227.244 317.25,225.244 319.5,223.5 Z"/></g>
<g><path style="opacity:1" fill="#f99986" d="M 319.5,223.5 C 323.5,223.5 327.5,223.5 331.5,223.5C 331.694,225.912 333.027,226.912 335.5,226.5C 335.275,228.716 336.108,230.383 338,231.5C 338.497,234.146 338.664,236.813 338.5,239.5C 337.5,239.5 336.5,239.5 335.5,239.5C 335.5,240.5 335.5,241.5 335.5,242.5C 330.167,242.5 324.833,242.5 319.5,242.5C 319.5,241.5 319.5,240.5 319.5,239.5C 318.167,239.5 316.833,239.5 315.5,239.5C 314.624,236.201 314.457,232.868 315,229.5C 317.305,227.978 318.805,225.978 319.5,223.5 Z"/></g>
<g><path style="opacity:1" fill="#513323" d="M 229.5,217.5 C 230.822,217.33 231.989,217.663 233,218.5C 233.18,220.488 233.014,222.488 232.5,224.5C 236.204,224.643 239.537,223.643 242.5,221.5C 244.921,223.433 247.254,225.6 249.5,228C 254.905,229.593 257.905,227.593 258.5,222C 259.784,221.316 260.951,221.483 262,222.5C 262.433,231.224 258.266,234.724 249.5,233C 246.421,231.752 243.754,229.919 241.5,227.5C 237.547,229.774 233.547,229.941 229.5,228C 226.868,224.432 226.868,220.932 229.5,217.5 Z"/></g>
<g><path style="opacity:1" fill="#522812" d="M 298.5,207.5 C 299.609,207.557 300.609,207.89 301.5,208.5C 300.962,210.117 300.629,211.784 300.5,213.5C 301.5,213.5 302.5,213.5 303.5,213.5C 304.561,216.864 305.561,220.197 306.5,223.5C 305.5,223.5 304.5,223.5 303.5,223.5C 303.719,224.675 303.386,225.675 302.5,226.5C 300.085,227.305 297.751,228.305 295.5,229.5C 293.167,227.5 290.833,225.5 288.5,223.5C 287.167,219.833 287.167,216.167 288.5,212.5C 291.125,211.236 293.792,210.069 296.5,209C 295.833,208.667 295.167,208.333 294.5,208C 295.793,207.51 297.127,207.343 298.5,207.5 Z"/></g>
<g><path style="opacity:1" fill="#c5b4ab" d="M 191.5,207.5 C 185.424,218.023 188.258,225.023 200,228.5C 211.706,225.088 214.54,218.088 208.5,207.5C 211.168,208.099 213.002,209.766 214,212.5C 213.937,215.572 214.104,218.572 214.5,221.5C 213.083,224.982 210.917,227.982 208,230.5C 207.275,229.941 206.442,229.608 205.5,229.5C 202.886,230.785 200.386,231.451 198,231.5C 196.103,229.984 193.936,229.317 191.5,229.5C 191.192,231.924 191.526,234.257 192.5,236.5C 196.902,237.835 199.568,240.668 200.5,245C 200.272,245.399 199.938,245.565 199.5,245.5C 197.281,244.12 195.281,244.454 193.5,246.5C 181.521,242.173 169.188,239.507 156.5,238.5C 154.031,237.683 151.365,237.183 148.5,237C 147.418,235.67 146.751,234.17 146.5,232.5C 149.408,233.569 152.408,233.736 155.5,233C 151.708,224.601 153.042,217.268 159.5,211C 166.11,209.559 172.776,209.226 179.5,210C 181.436,212.037 183.102,214.203 184.5,216.5C 185.944,213.945 187.111,211.279 188,208.5C 189.011,207.663 190.178,207.33 191.5,207.5 Z"/></g>
<g><path style="opacity:1" fill="#fc9784" d="M 175.5,229.5 C 173.566,230.532 171.4,231.198 169,231.5C 165.865,230.346 162.698,229.346 159.5,228.5C 159.5,228.167 159.5,227.833 159.5,227.5C 159.5,224.167 159.5,220.833 159.5,217.5C 161.783,217.392 163.783,216.559 165.5,215C 171.512,213.852 175.846,216.019 178.5,221.5C 177.642,224.269 176.642,226.935 175.5,229.5 Z"/></g>
<g><path style="opacity:1" fill="#eaa090" d="M 175.5,229.5 C 176.642,226.935 177.642,224.269 178.5,221.5C 175.846,216.019 171.512,213.852 165.5,215C 163.783,216.559 161.783,217.392 159.5,217.5C 165.993,210.869 172.66,210.869 179.5,217.5C 180.575,220.438 180.741,223.438 180,226.5C 179.092,228.439 177.592,229.439 175.5,229.5 Z"/></g>
<g><path style="opacity:1" fill="#d9aca0" d="M 159.5,228.5 C 162.698,229.346 165.865,230.346 169,231.5C 171.4,231.198 173.566,230.532 175.5,229.5C 177.592,229.439 179.092,228.439 180,226.5C 180.741,223.438 180.575,220.438 179.5,217.5C 172.66,210.869 165.993,210.869 159.5,217.5C 159.5,220.833 159.5,224.167 159.5,227.5C 155.746,226.172 154.579,223.506 156,219.5C 157.115,216.054 159.282,213.554 162.5,212C 180.897,208.057 186.564,214.723 179.5,232C 174.508,233.391 169.508,233.557 164.5,232.5C 162.414,231.511 160.747,230.178 159.5,228.5 Z"/></g>
<g><path style="opacity:1" fill="#512a16" d="M 208.5,207.5 C 214.54,218.088 211.706,225.088 200,228.5C 188.258,225.023 185.424,218.023 191.5,207.5C 197.199,203.508 202.866,203.508 208.5,207.5 Z"/></g>
<g><path style="opacity:1" fill="#ccb0a4" d="M 392.5,159.5 C 396.407,161.981 400.74,163.814 405.5,165C 408.36,167.36 411.36,169.527 414.5,171.5C 415.452,169.955 415.785,168.288 415.5,166.5C 421.316,170.452 424.816,175.785 426,182.5C 417.704,188.414 408.87,193.08 399.5,196.5C 398.833,196.5 398.167,196.5 397.5,196.5C 396.463,195.07 395.796,193.403 395.5,191.5C 399.514,191.666 403.514,191.499 407.5,191C 408.047,190.075 408.713,189.242 409.5,188.5C 411.657,187.95 413.657,187.283 415.5,186.5C 415.5,186.167 415.5,185.833 415.5,185.5C 418.857,184.879 420.024,182.879 419,179.5C 416.5,177.667 414.333,175.5 412.5,173C 408.145,171.154 403.811,169.321 399.5,167.5C 399.5,167.167 399.5,166.833 399.5,166.5C 396.62,164.858 394.286,162.525 392.5,159.5 Z"/></g>
<g><path style="opacity:1" fill="#fc9783" d="M 399.5,166.5 C 399.5,166.833 399.5,167.167 399.5,167.5C 402.944,169.736 406.277,172.236 409.5,175C 410.448,175.483 411.448,175.649 412.5,175.5C 412.5,176.5 412.5,177.5 412.5,178.5C 414.971,178.233 416.638,179.233 417.5,181.5C 416.775,182.867 416.108,184.2 415.5,185.5C 415.5,185.833 415.5,186.167 415.5,186.5C 409.674,186.599 404.007,187.599 398.5,189.5C 397.127,187.51 396.127,185.343 395.5,183C 397.205,180.523 399.205,179.189 401.5,179C 400.027,178.29 399.36,177.124 399.5,175.5C 398.5,175.5 397.5,175.5 396.5,175.5C 396.147,172.121 394.813,169.121 392.5,166.5C 394.718,165.943 397.051,165.943 399.5,166.5 Z"/></g>
<g><path style="opacity:1" fill="#f19c8b" d="M 389.5,159.5 C 390.5,159.5 391.5,159.5 392.5,159.5C 394.286,162.525 396.62,164.858 399.5,166.5C 397.051,165.943 394.718,165.943 392.5,166.5C 394.813,169.121 396.147,172.121 396.5,175.5C 397.5,175.5 398.5,175.5 399.5,175.5C 399.36,177.124 400.027,178.29 401.5,179C 399.205,179.189 397.205,180.523 395.5,183C 396.127,185.343 397.127,187.51 398.5,189.5C 404.007,187.599 409.674,186.599 415.5,186.5C 413.657,187.283 411.657,187.95 409.5,188.5C 408.713,189.242 408.047,190.075 407.5,191C 403.514,191.499 399.514,191.666 395.5,191.5C 394.732,187.298 392.899,183.631 390,180.5C 389.438,178.134 389.604,175.801 390.5,173.5C 389.283,170.238 387.949,167.072 386.5,164C 386.414,161.648 387.414,160.148 389.5,159.5 Z"/></g>
<g><path style="opacity:1" fill="#e99e92" d="M 399.5,167.5 C 403.811,169.321 408.145,171.154 412.5,173C 414.333,175.5 416.5,177.667 419,179.5C 420.024,182.879 418.857,184.879 415.5,185.5C 416.108,184.2 416.775,182.867 417.5,181.5C 416.638,179.233 414.971,178.233 412.5,178.5C 412.5,177.5 412.5,176.5 412.5,175.5C 411.448,175.649 410.448,175.483 409.5,175C 406.277,172.236 402.944,169.736 399.5,167.5 Z"/></g>
<g><path style="opacity:1" fill="#d8aca1" d="M 389.5,159.5 C 387.414,160.148 386.414,161.648 386.5,164C 387.949,167.072 389.283,170.238 390.5,173.5C 389.604,175.801 389.438,178.134 390,180.5C 392.899,183.631 394.732,187.298 395.5,191.5C 391.498,186.84 388.498,181.507 386.5,175.5C 385.5,175.5 384.5,175.5 383.5,175.5C 383.137,173.089 384.137,171.589 386.5,171C 385.527,168.453 383.693,166.953 381,166.5C 375.946,157.547 378.446,154.381 388.5,157C 389.252,157.671 389.586,158.504 389.5,159.5 Z"/></g>
<g><path style="opacity:1" fill="#e6a191" d="M 148.5,143.5 C 147.644,146.686 145.977,149.353 143.5,151.5C 144.947,152.399 146.614,153.899 148.5,156C 149.793,156.49 151.127,156.657 152.5,156.5C 152.443,157.609 152.11,158.609 151.5,159.5C 147.73,158.603 144.23,156.937 141,154.5C 140.031,151.672 140.697,149.338 143,147.5C 143.49,146.207 143.657,144.873 143.5,143.5C 145.167,143.5 146.833,143.5 148.5,143.5 Z"/></g>
<g><path style="opacity:1" fill="#f39886" d="M 166.5,135.5 C 161.572,142.365 156.905,149.365 152.5,156.5C 151.127,156.657 149.793,156.49 148.5,156C 146.614,153.899 144.947,152.399 143.5,151.5C 145.977,149.353 147.644,146.686 148.5,143.5C 151.698,141.109 155.365,139.776 159.5,139.5C 159.5,138.167 159.5,136.833 159.5,135.5C 161.833,135.5 164.167,135.5 166.5,135.5 Z"/></g>
<g><path style="opacity:1" fill="#572918" d="M 171.5,132.5 C 170.26,133.973 169.26,135.64 168.5,137.5C 168.624,138.107 168.957,138.44 169.5,138.5C 163.271,147.041 157.937,156.041 153.5,165.5C 151.774,165.815 150.107,165.981 148.5,166C 148.402,164.715 148.402,163.549 148.5,162.5C 150.144,162.19 151.144,161.19 151.5,159.5C 152.11,158.609 152.443,157.609 152.5,156.5C 156.905,149.365 161.572,142.365 166.5,135.5C 167.922,134.075 169.589,133.075 171.5,132.5 Z"/></g>
<g><path style="opacity:1" fill="#c6b3a9" d="M 171.5,132.5 C 169.589,133.075 167.922,134.075 166.5,135.5C 164.167,135.5 161.833,135.5 159.5,135.5C 159.5,136.833 159.5,138.167 159.5,139.5C 155.365,139.776 151.698,141.109 148.5,143.5C 146.833,143.5 145.167,143.5 143.5,143.5C 143.657,144.873 143.49,146.207 143,147.5C 140.697,149.338 140.031,151.672 141,154.5C 144.23,156.937 147.73,158.603 151.5,159.5C 151.144,161.19 150.144,162.19 148.5,162.5C 144.232,159.411 140.066,156.077 136,152.5C 133.929,150.545 133.262,148.212 134,145.5C 144.104,136.192 155.604,129.026 168.5,124C 182.694,119.293 183.86,121.127 172,129.5C 171.517,130.448 171.351,131.448 171.5,132.5 Z"/></g>
<g><path style="opacity:1" fill="#f7ece4" d="M 44.5,286.5 C 39.9842,288.176 35.8176,290.51 32,293.5C 31.5034,295.81 31.3367,298.143 31.5,300.5C 33.8333,301.167 36.1667,301.833 38.5,302.5C 38.5299,303.497 38.0299,304.164 37,304.5C 32.0362,303.433 27.5362,301.433 23.5,298.5C 30.9835,286.498 40.9835,277.665 53.5,272C 49.5849,276.343 46.5849,281.177 44.5,286.5 Z"/></g>
<g><path style="opacity:1" fill="#c3b4ab" d="M 268.5,287.5 C 270.124,287.36 271.29,288.027 272,289.5C 273.84,288.167 274.34,288.334 273.5,290C 277.814,292.67 282.314,294.837 287,296.5C 287.249,295.376 287.749,294.376 288.5,293.5C 295.97,295.448 298.303,299.781 295.5,306.5C 288.804,307.198 281.804,306.698 274.5,305C 275.167,304.667 275.833,304.333 276.5,304C 271.173,304.418 267.006,302.584 264,298.5C 263.365,299.966 262.531,301.3 261.5,302.5C 264.733,302.753 267.066,304.253 268.5,307C 264.459,307.173 260.459,307.673 256.5,308.5C 256.013,309.446 255.68,310.446 255.5,311.5C 257.015,312.742 259.015,314.242 261.5,316C 260.167,317 260.167,318 261.5,319C 267.463,323.265 274.13,325.432 281.5,325.5C 287.126,323.408 292.959,322.075 299,321.5C 303.664,324.162 304.497,327.662 301.5,332C 299.377,332.815 297.377,333.815 295.5,335C 287.167,335.667 278.833,335.667 270.5,335C 269.833,334.667 269.167,334.333 268.5,334C 269.416,333.722 270.082,333.222 270.5,332.5C 280.474,334.195 290.14,333.028 299.5,329C 300.38,327.644 300.714,326.144 300.5,324.5C 293.325,325.435 286.158,326.435 279,327.5C 269.941,327.473 262.275,324.14 256,317.5C 251.612,311.391 248.279,304.724 246,297.5C 243.633,289.882 246.3,285.215 254,283.5C 256.38,284.201 258.547,285.367 260.5,287C 264.552,294.052 270.219,299.386 277.5,303C 282.833,303.667 288.167,303.667 293.5,303C 294.38,301.644 294.714,300.144 294.5,298.5C 283.177,300.628 274.511,296.961 268.5,287.5 Z"/></g>
<g><path style="opacity:1" fill="#f0ab9c" d="M 44.5,286.5 C 42.1974,291.703 40.1974,297.036 38.5,302.5C 36.1667,301.833 33.8333,301.167 31.5,300.5C 31.3367,298.143 31.5034,295.81 32,293.5C 35.8176,290.51 39.9842,288.176 44.5,286.5 Z"/></g>
<g><path style="opacity:1" fill="#ab9d94" d="M 321.5,305.5 C 327.532,305.836 333.532,306.503 339.5,307.5C 342.658,312.123 345.158,317.123 347,322.5C 356.839,356.237 359.672,390.57 355.5,425.5C 354.662,425.842 354.328,426.508 354.5,427.5C 353.833,427.5 353.5,427.833 353.5,428.5C 350.282,428.651 349.949,429.484 352.5,431C 351.328,431.419 350.328,432.085 349.5,433C 351.134,433.494 352.801,433.66 354.5,433.5C 354.167,435.5 353.833,437.5 353.5,439.5C 345.5,439.5 337.5,439.5 329.5,439.5C 335.185,415.836 337.018,391.836 335,367.5C 334.247,345.844 329.747,325.177 321.5,305.5 Z"/></g>
<g><path style="opacity:1" fill="#4f3224" d="M 194.5,287.5 C 194.997,298.617 195.997,309.784 197.5,321C 202.326,321.618 206.992,320.951 211.5,319C 218.597,316.617 225.264,313.45 231.5,309.5C 234.246,310.096 235.08,311.763 234,314.5C 224.814,320.228 214.981,324.394 204.5,327C 201.167,327.667 197.833,327.667 194.5,327C 192.683,325.2 191.516,323.034 191,320.5C 189.548,309.536 189.215,298.536 190,287.5C 191.616,286.199 193.116,286.199 194.5,287.5 Z"/></g>
<g><path style="opacity:1" fill="#502816" d="M 194.5,287.5 C 194.5,298.167 194.5,308.833 194.5,319.5C 193.5,319.5 192.5,319.5 191.5,319.5C 191.5,308.833 191.5,298.167 191.5,287.5C 192.5,287.5 193.5,287.5 194.5,287.5 Z"/></g>
<g><path style="opacity:1" fill="#502917" d="M 79.5,335.5 C 80.6341,337.966 80.8007,340.633 80,343.5C 79.6174,344.056 79.1174,344.389 78.5,344.5C 73.3707,347.554 68.704,346.388 64.5,341C 66.3204,338.36 67.6537,335.527 68.5,332.5C 70.5273,332.338 72.5273,332.505 74.5,333C 75.6174,334.892 77.2841,335.725 79.5,335.5 Z"/></g>
<g><path style="opacity:1" fill="#4f3225" d="M 79.5,335.5 C 77.2841,335.725 75.6174,334.892 74.5,333C 72.5273,332.505 70.5273,332.338 68.5,332.5C 67.6537,335.527 66.3204,338.36 64.5,341C 68.704,346.388 73.3707,347.554 78.5,344.5C 78.4257,346.411 77.4257,347.578 75.5,348C 67.8832,349.694 63.5499,346.694 62.5,339C 65.501,330.834 70.8343,328.834 78.5,333C 79.2524,333.671 79.5858,334.504 79.5,335.5 Z"/></g>
<g><path style="opacity:1" fill="#522915" d="M 159.5,342.5 C 159.5,345.5 159.5,348.5 159.5,351.5C 157.158,351.504 155.158,352.337 153.5,354C 144.853,355.174 141.52,351.341 143.5,342.5C 143.511,340.983 144.177,339.816 145.5,339C 151.283,336.186 155.95,337.352 159.5,342.5 Z"/></g>
<g><path style="opacity:1" fill="#622919" d="M 98.5,362.5 C 98.5,362.167 98.5,361.833 98.5,361.5C 98.3341,356.489 98.5007,351.489 99,346.5C 101.028,342.91 103.528,342.577 106.5,345.5C 107.304,346.941 107.971,348.441 108.5,350C 107.77,353.794 107.27,357.627 107,361.5C 105.535,363.915 103.368,364.915 100.5,364.5C 100.869,362.007 100.203,361.34 98.5,362.5 Z"/></g>
<g><path style="opacity:1" fill="#4d3223" d="M 143.5,342.5 C 141.52,351.341 144.853,355.174 153.5,354C 155.158,352.337 157.158,351.504 159.5,351.5C 159.5,348.5 159.5,345.5 159.5,342.5C 162.548,347.93 161.548,352.763 156.5,357C 149.475,360.314 144.309,358.48 141,351.5C 140.333,349.167 140.333,346.833 141,344.5C 141.708,343.619 142.542,342.953 143.5,342.5 Z"/></g>
<g><path style="opacity:1" fill="#a38e86" d="M 115.5,350.5 C 114.081,351.451 112.415,351.784 110.5,351.5C 110.768,353.099 110.434,354.432 109.5,355.5C 109.5,353.833 109.5,352.167 109.5,350.5C 111.5,350.5 113.5,350.5 115.5,350.5 Z"/></g>
<g><path style="opacity:1" fill="#f8e2df" d="M 166.5,353.5 C 172.304,353.086 177.804,354.086 183,356.5C 185.678,362.618 184.511,367.784 179.5,372C 167.068,375.375 161.235,370.875 162,358.5C 163.707,356.963 165.207,355.296 166.5,353.5 Z"/></g>
<g><path style="opacity:1" fill="#f9f4e8" d="M 372.5,300.5 C 371.426,302.284 369.76,303.451 367.5,304C 368.328,304.915 369.328,305.581 370.5,306C 369.584,306.374 368.75,306.874 368,307.5C 367.692,306.692 367.192,306.025 366.5,305.5C 361.845,307.165 357.178,308.832 352.5,310.5C 351.167,312.5 351.167,314.5 352.5,316.5C 354.278,316.569 356.111,316.903 358,317.5C 358.333,316.833 358.667,316.167 359,315.5C 360.204,316.859 361.704,317.859 363.5,318.5C 361.604,319.466 359.604,319.799 357.5,319.5C 359.008,322.14 358.674,324.473 356.5,326.5C 357.167,327.5 357.833,328.5 358.5,329.5C 357.515,331.098 357.349,332.765 358,334.5C 359.634,339.102 361.801,343.435 364.5,347.5C 361.972,348.517 361.972,349.684 364.5,351C 361.92,352.481 361.087,354.648 362,357.5C 364.192,362.716 365.859,362.383 367,356.5C 367.333,356.833 367.667,357.167 368,357.5C 369.277,355.253 370.777,353.253 372.5,351.5C 370.056,358.215 368.556,365.215 368,372.5C 367.194,375.446 365.861,378.112 364,380.5C 361.98,355.545 356.48,331.378 347.5,308C 347.905,307.055 348.572,306.388 349.5,306C 357.611,305.889 365.278,304.055 372.5,300.5 Z"/></g>
<g><path style="opacity:1" fill="#503125" d="M 115.5,350.5 C 113.5,350.5 111.5,350.5 109.5,350.5C 109.5,352.167 109.5,353.833 109.5,355.5C 109.293,360.297 107.626,364.463 104.5,368C 103.5,368.667 102.5,368.667 101.5,368C 100.242,366.259 99.2423,364.426 98.5,362.5C 100.203,361.34 100.869,362.007 100.5,364.5C 103.368,364.915 105.535,363.915 107,361.5C 107.27,357.627 107.77,353.794 108.5,350C 107.971,348.441 107.304,346.941 106.5,345.5C 103.528,342.577 101.028,342.91 99,346.5C 98.5007,351.489 98.3341,356.489 98.5,361.5C 97.7784,361.082 97.2784,360.416 97,359.5C 96.5012,355.514 96.3345,351.514 96.5,347.5C 93.5,347.833 92.1667,346.5 92.5,343.5C 97.2465,343.713 101.58,342.88 105.5,341C 107.453,345.283 110.786,347.617 115.5,348C 116.598,348.77 116.598,349.603 115.5,350.5 Z"/></g>
<g><path style="opacity:1" fill="#e38b77" d="M 101.5,345.5 C 103.017,345.511 104.184,346.177 105,347.5C 106.01,353.064 105.343,358.398 103,363.5C 100.681,357.626 100.181,351.626 101.5,345.5 Z"/></g>
<g><path style="opacity:1" fill="#f5dfd7" d="M 44.5,304.5 C 42.8122,316.469 41.6456,328.469 41,340.5C 46.4277,336.176 52.2611,335.509 58.5,338.5C 60.0672,344.03 59.7339,349.364 57.5,354.5C 53.7604,354.241 50.0938,354.574 46.5,355.5C 45.3801,354.167 44.0468,353.667 42.5,354C 43.3831,357.45 44.2164,360.95 45,364.5C 48.8061,369.639 53.3061,374.139 58.5,378C 64.0419,381.384 70.0419,382.884 76.5,382.5C 75.0639,383.429 73.7305,384.595 72.5,386C 63.964,387.047 55.964,385.38 48.5,381C 33.1955,366.682 30.3622,350.182 40,331.5C 40.6667,324.833 41.3333,318.167 42,311.5C 42.3903,308.896 43.2237,306.562 44.5,304.5 Z"/></g>
<g><path style="opacity:1" fill="#f7e1d6" d="M 248.5,317.5 C 250.099,319.604 251.932,321.604 254,323.5C 255.935,337.149 255.935,350.815 254,364.5C 246.906,384.413 232.739,395.08 211.5,396.5C 200.645,396.262 189.978,396.262 179.5,396.5C 178.89,397.391 178.557,398.391 178.5,399.5C 175.982,398.306 175.982,397.14 178.5,396C 178.167,395.667 177.833,395.333 177.5,395C 185.887,394.639 194.22,393.806 202.5,392.5C 206.558,390.141 210.892,388.308 215.5,387C 217.328,384.058 219.995,382.891 223.5,383.5C 223.238,382.022 223.571,380.689 224.5,379.5C 229.402,375.831 234.069,371.831 238.5,367.5C 239.314,365.234 239.814,362.9 240,360.5C 247.186,349.114 251.02,336.781 251.5,323.5C 249.962,321.757 248.962,319.757 248.5,317.5 Z"/></g>
<g><path style="opacity:1" fill="#ac968a" d="M 389.5,357.5 C 387.4,357.523 385.567,356.856 384,355.5C 381.964,355.954 380.13,356.787 378.5,358C 378.833,358.333 379.167,358.667 379.5,359C 378.084,361.627 377.417,364.46 377.5,367.5C 377.873,370.209 378.04,372.876 378,375.5C 375.121,378.043 372.621,380.877 370.5,384C 371.451,384.718 371.617,385.551 371,386.5C 368.667,387.5 367,389.167 366,391.5C 365.667,390.833 365.333,390.167 365,389.5C 364.161,396.567 364.494,403.567 366,410.5C 366.333,410.833 366.667,411.167 367,411.5C 369.472,408.35 372.639,406.35 376.5,405.5C 374.098,408.215 371.432,410.715 368.5,413C 366.598,414.301 364.598,414.968 362.5,415C 363.154,405.893 363.821,396.726 364.5,387.5C 368.67,384.834 371.503,381.168 373,376.5C 374,370.833 375,365.167 376,359.5C 377.44,353.94 380.94,352.107 386.5,354C 388.056,354.72 389.056,355.887 389.5,357.5 Z"/></g>
<g><path style="opacity:1" fill="#4d2e1d" d="M 126.5,394.5 C 119.877,401.639 118.377,409.639 122,418.5C 124.707,420.886 127.54,421.052 130.5,419C 132.652,416.531 134.152,413.698 135,410.5C 136.011,409.663 137.178,409.33 138.5,409.5C 139.338,409.842 139.672,410.508 139.5,411.5C 137.895,416.814 139.562,420.98 144.5,424C 149.189,424.291 153.856,424.291 158.5,424C 159.337,425.011 159.67,426.178 159.5,427.5C 149.734,432.889 141.567,431.222 135,422.5C 125.237,428.297 118.237,425.964 114,415.5C 113.134,404.778 116.634,395.611 124.5,388C 136.184,382.087 145.684,384.587 153,395.5C 154.584,400.362 153.084,402.028 148.5,400.5C 145.762,392.964 140.428,389.797 132.5,391C 129.975,391.424 127.975,392.59 126.5,394.5 Z"/></g>
<g><path style="opacity:1" fill="#fafaf8" d="M 79.5,405.5 C 77.7376,405.643 76.0709,405.309 74.5,404.5C 74.6157,407.714 74.2823,411.047 73.5,414.5C 71.9291,415.309 70.2624,415.643 68.5,415.5C 66.9534,408.824 67.4534,402.157 70,395.5C 71.0391,394.29 72.2058,393.29 73.5,392.5C 74.1174,392.611 74.6174,392.944 75,393.5C 76.1369,392.636 77.4702,391.636 79,390.5C 79.3333,390.833 79.6667,391.167 80,391.5C 82.9625,389.756 86.1292,389.256 89.5,390C 90.952,391.958 91.2854,393.958 90.5,396C 91.7155,398.096 92.5488,397.929 93,395.5C 96.1154,398.182 97.1154,401.516 96,405.5C 94.629,409.073 93.129,412.573 91.5,416C 91.8333,416.333 92.1667,416.667 92.5,417C 89.8351,419.1 87.6685,418.6 86,415.5C 85.0124,412.576 84.3457,409.576 84,406.5C 83.3333,405.833 82.6667,405.167 82,404.5C 81.3292,405.252 80.4959,405.586 79.5,405.5 Z"/></g>
<g><path style="opacity:1" fill="#ac9d94" d="M 389.5,357.5 C 389.783,358.289 390.283,358.956 391,359.5C 391.667,365.5 391.667,371.5 391,377.5C 389.197,383.242 387.197,388.909 385,394.5C 382.685,398.638 379.852,402.305 376.5,405.5C 372.639,406.35 369.472,408.35 367,411.5C 366.667,411.167 366.333,410.833 366,410.5C 364.494,403.567 364.161,396.567 365,389.5C 365.333,390.167 365.667,390.833 366,391.5C 367,389.167 368.667,387.5 371,386.5C 371.617,385.551 371.451,384.718 370.5,384C 372.621,380.877 375.121,378.043 378,375.5C 378.04,372.876 377.873,370.209 377.5,367.5C 377.417,364.46 378.084,361.627 379.5,359C 379.167,358.667 378.833,358.333 378.5,358C 380.13,356.787 381.964,355.954 384,355.5C 385.567,356.856 387.4,357.523 389.5,357.5 Z"/></g>
<g><path style="opacity:1" fill="#c1a091" d="M 179.5,396.5 C 189.978,396.262 200.645,396.262 211.5,396.5C 200.99,397.659 190.324,397.659 179.5,396.5 Z"/></g>
<g><path style="opacity:1" fill="#512d1b" d="M 268.5,287.5 C 274.511,296.961 283.177,300.628 294.5,298.5C 294.714,300.144 294.38,301.644 293.5,303C 288.167,303.667 282.833,303.667 277.5,303C 270.219,299.386 264.552,294.052 260.5,287C 258.547,285.367 256.38,284.201 254,283.5C 246.3,285.215 243.633,289.882 246,297.5C 248.279,304.724 251.612,311.391 256,317.5C 262.275,324.14 269.941,327.473 279,327.5C 286.158,326.435 293.325,325.435 300.5,324.5C 300.714,326.144 300.38,327.644 299.5,329C 290.14,333.028 280.474,334.195 270.5,332.5C 267.404,332.191 264.571,331.191 262,329.5C 261.5,329.833 261,330.167 260.5,330.5C 261.138,334.782 261.471,339.116 261.5,343.5C 262.495,358.57 258.829,372.236 250.5,384.5C 241.572,393.967 230.572,399.801 217.5,402C 217.043,402.414 216.709,402.914 216.5,403.5C 220.461,409.089 223.627,415.089 226,421.5C 227.621,414.759 230.454,408.593 234.5,403C 239.88,400.418 244.547,401.251 248.5,405.5C 251.526,417.036 250.859,428.369 246.5,439.5C 244.5,439.5 242.5,439.5 240.5,439.5C 244.897,429.886 246.064,419.886 244,409.5C 241.034,406.735 238.367,407.068 236,410.5C 234.181,415.44 232.514,420.44 231,425.5C 230.333,426.167 229.667,426.833 229,427.5C 228.501,431.486 228.334,435.486 228.5,439.5C 226.5,439.5 224.5,439.5 222.5,439.5C 222.235,426.144 217.902,414.311 209.5,404C 204.511,403.501 199.511,403.334 194.5,403.5C 190.812,403.45 187.145,403.116 183.5,402.5C 181.083,402.511 179.417,401.511 178.5,399.5C 178.557,398.391 178.89,397.391 179.5,396.5C 190.324,397.659 200.99,397.659 211.5,396.5C 232.739,395.08 246.906,384.413 254,364.5C 255.935,350.815 255.935,337.149 254,323.5C 251.932,321.604 250.099,319.604 248.5,317.5C 243.058,308.608 239.892,298.941 239,288.5C 235.011,282.845 230.344,277.845 225,273.5C 224.554,270.667 225.054,268.001 226.5,265.5C 228.086,264.587 229.586,264.587 231,265.5C 232.367,272.548 236.034,278.214 242,282.5C 252.415,275.915 261.249,277.582 268.5,287.5 Z"/></g>
<g><path style="opacity:1" fill="#c6b2a7" d="M 250.5,384.5 C 249.494,386.999 248.827,389.333 248.5,391.5C 245.28,393.603 242.28,395.936 239.5,398.5C 242.905,399.425 246.239,400.425 249.5,401.5C 249.567,402.959 249.234,404.292 248.5,405.5C 244.547,401.251 239.88,400.418 234.5,403C 230.454,408.593 227.621,414.759 226,421.5C 223.627,415.089 220.461,409.089 216.5,403.5C 216.709,402.914 217.043,402.414 217.5,402C 230.572,399.801 241.572,393.967 250.5,384.5 Z"/></g>
<g><path style="opacity:1" fill="#f0e7df" d="M 126.5,394.5 C 128.132,397.427 127.298,399.427 124,400.5C 123.667,402.167 123.333,403.833 123,405.5C 122.346,404.304 121.846,404.304 121.5,405.5C 121.521,409.162 121.855,412.829 122.5,416.5C 125.857,416.23 128.191,416.896 129.5,418.5C 129.571,415.258 130.571,412.425 132.5,410C 132.167,409.667 131.833,409.333 131.5,409C 133.078,407.86 134.744,407.36 136.5,407.5C 137.522,407.855 138.189,408.522 138.5,409.5C 137.178,409.33 136.011,409.663 135,410.5C 134.152,413.698 132.652,416.531 130.5,419C 127.54,421.052 124.707,420.886 122,418.5C 118.377,409.639 119.877,401.639 126.5,394.5 Z"/></g>
<g><path style="opacity:1" fill="#f3ebe3" d="M 79.5,406.5 C 79.5,406.167 79.5,405.833 79.5,405.5C 80.4959,405.586 81.3292,405.252 82,404.5C 82.6667,405.167 83.3333,405.833 84,406.5C 84.3457,409.576 85.0124,412.576 86,415.5C 87.6685,418.6 89.8351,419.1 92.5,417C 92.1667,416.667 91.8333,416.333 91.5,416C 93.129,412.573 94.629,409.073 96,405.5C 97.1154,401.516 96.1154,398.182 93,395.5C 92.5488,397.929 91.7155,398.096 90.5,396C 91.2854,393.958 90.952,391.958 89.5,390C 86.1292,389.256 82.9625,389.756 80,391.5C 79.6667,391.167 79.3333,390.833 79,390.5C 77.4702,391.636 76.1369,392.636 75,393.5C 74.6174,392.944 74.1174,392.611 73.5,392.5C 80.9194,385.561 88.0861,385.895 95,393.5C 97.9566,400.33 98.29,407.33 96,414.5C 93.8433,420.368 89.8433,422.035 84,419.5C 81.3079,415.481 79.8079,411.148 79.5,406.5 Z"/></g>
<g><path style="opacity:1" fill="#f7e1d7" d="M 194.5,403.5 C 199.511,403.334 204.511,403.501 209.5,404C 217.902,414.311 222.235,426.144 222.5,439.5C 217.833,439.5 213.167,439.5 208.5,439.5C 208.219,435.812 207.719,432.145 207,428.5C 203.08,421.07 199.747,413.403 197,405.5C 196.005,404.934 195.172,404.267 194.5,403.5 Z"/></g>
<g><path style="opacity:1" fill="#e7d2c5" d="M 79.5,405.5 C 79.5,405.833 79.5,406.167 79.5,406.5C 78.1779,406.33 77.0113,406.663 76,407.5C 75.1872,411.664 75.6872,415.664 77.5,419.5C 72.9414,421.579 69.9414,420.246 68.5,415.5C 70.2624,415.643 71.9291,415.309 73.5,414.5C 74.2823,411.047 74.6157,407.714 74.5,404.5C 76.0709,405.309 77.7376,405.643 79.5,405.5 Z"/></g>
<g><path style="opacity:1" fill="#f2dfd8" d="M 139.5,411.5 C 141.572,412.763 143.572,414.93 145.5,418C 150.104,419.061 154.771,419.727 159.5,420C 160.814,422.605 160.814,425.105 159.5,427.5C 159.67,426.178 159.337,425.011 158.5,424C 153.856,424.291 149.189,424.291 144.5,424C 139.562,420.98 137.895,416.814 139.5,411.5 Z"/></g>
<g><path style="opacity:1" fill="#f5dcd0" d="M 240.5,439.5 C 236.5,439.5 232.5,439.5 228.5,439.5C 228.334,435.486 228.501,431.486 229,427.5C 229.667,426.833 230.333,426.167 231,425.5C 232.514,420.44 234.181,415.44 236,410.5C 238.367,407.068 241.034,406.735 244,409.5C 246.064,419.886 244.897,429.886 240.5,439.5 Z"/></g>
<g><path style="opacity:1" fill="#f0ede8" d="M 422.5,421.5 C 428.546,422.058 431.046,425.391 430,431.5C 430.333,429.167 430.667,426.833 431,424.5C 432.016,425.634 432.683,425.301 433,423.5C 433.333,426.167 433.667,428.833 434,431.5C 434.118,428.629 434.784,425.962 436,423.5C 436.579,427.203 436.412,430.869 435.5,434.5C 426.738,434.153 418.071,433.153 409.5,431.5C 409.422,428.748 409.255,426.082 409,423.5C 410.699,422.594 412.533,422.261 414.5,422.5C 414.413,425.598 414.913,425.932 416,423.5C 416.667,426.167 417.333,426.167 418,423.5C 420.108,424.612 421.608,423.946 422.5,421.5 Z"/></g>
<g><path style="opacity:1" fill="#f5e2d8" d="M 95.5,425.5 C 95.516,427.484 94.516,428.484 92.5,428.5C 89.4042,428.025 86.4042,427.692 83.5,427.5C 83.5,431.5 83.5,435.5 83.5,439.5C 81.5,439.5 79.5,439.5 77.5,439.5C 77.5,434.833 77.5,430.167 77.5,425.5C 83.3532,426.464 89.3532,426.464 95.5,425.5 Z"/></g>
<g><path style="opacity:1" fill="#7a6b63" d="M 360.5,424.5 C 361.494,426.334 361.494,428.001 360.5,429.5C 360.539,427.776 360.206,427.443 359.5,428.5C 358.272,427.694 357.272,426.694 356.5,425.5C 356.577,424.25 357.244,423.417 358.5,423C 357.833,422.667 357.167,422.333 356.5,422C 358.945,421.09 360.278,421.924 360.5,424.5 Z"/></g>
<g><path style="opacity:1" fill="#e7dfdd" d="M 349.5,424.5 C 350.978,424.238 352.311,424.571 353.5,425.5C 349.986,426.514 348.152,428.848 348,432.5C 346.296,429.527 346.796,426.86 349.5,424.5 Z"/></g>
<g><path style="opacity:1" fill="#584f46" d="M 353.5,428.5 C 353.5,427.833 353.833,427.5 354.5,427.5C 356.344,428.204 356.844,429.537 356,431.5C 355.282,432.451 354.449,432.617 353.5,432C 354.791,430.708 354.791,429.542 353.5,428.5 Z"/></g>
<g><path style="opacity:1" fill="#ebe5de" d="M 371.5,417.5 C 371.577,418.75 372.244,419.583 373.5,420C 370.668,421.908 371.001,422.741 374.5,422.5C 374.5,426.167 374.5,429.833 374.5,433.5C 372.599,433.433 370.766,433.767 369,434.5C 361.972,428.669 359.805,430.335 362.5,439.5C 361.5,439.5 360.5,439.5 359.5,439.5C 359.616,436.14 359.949,432.807 360.5,429.5C 361.494,428.001 361.494,426.334 360.5,424.5C 363.892,421.957 367.558,419.624 371.5,417.5 Z"/></g>
<g><path style="opacity:1" fill="#dcd2c8" d="M 355.5,425.5 C 355.833,425.5 356.167,425.5 356.5,425.5C 357.272,426.694 358.272,427.694 359.5,428.5C 359.463,431.702 357.797,433.368 354.5,433.5C 352.801,433.66 351.134,433.494 349.5,433C 350.328,432.085 351.328,431.419 352.5,431C 349.949,429.484 350.282,428.651 353.5,428.5C 354.791,429.542 354.791,430.708 353.5,432C 354.449,432.617 355.282,432.451 356,431.5C 356.844,429.537 356.344,428.204 354.5,427.5C 354.328,426.508 354.662,425.842 355.5,425.5 Z"/></g>
<g><path style="opacity:1" fill="#ece9e3" d="M 382.5,423.5 C 388.785,424.254 395.118,424.92 401.5,425.5C 401.5,427.5 401.5,429.5 401.5,431.5C 403.527,431.338 405.527,431.505 407.5,432C 405.167,432.333 402.833,432.667 400.5,433C 402.577,433.192 404.577,433.692 406.5,434.5C 405.333,434.833 404.167,435.167 403,435.5C 400.521,434.755 398.021,434.089 395.5,433.5C 388.86,434.497 382.193,435.163 375.5,435.5C 375.335,432.482 375.502,429.482 376,426.5C 376.494,428.134 376.66,429.801 376.5,431.5C 378.167,431.5 379.833,431.5 381.5,431.5C 381.575,428.794 381.908,426.127 382.5,423.5 Z"/></g>
<g><path style="opacity:1" fill="#4e2b1d" d="M 360.5,429.5 C 359.949,432.807 359.616,436.14 359.5,439.5C 357.5,439.5 355.5,439.5 353.5,439.5C 353.833,437.5 354.167,435.5 354.5,433.5C 357.797,433.368 359.463,431.702 359.5,428.5C 360.206,427.443 360.539,427.776 360.5,429.5 Z"/></g>
</svg>
